<svg width="140" height="216" viewBox="0 0 140 216" fill="none" xmlns="http://www.w3.org/2000/svg">
<g clip-path="url(#clip0_146_308)">
<path d="M114.125 50.4932L110.265 47.451C129.564 22.5427 106.406 4.4797 95.4978 23.1131C85.2611 40.6057 99.1896 62.2816 107.58 90.422C120.837 134.915 118.824 158.872 101.707 182.069C58.5788 240.251 -22.1394 218.005 5.71762 157.731C15.283 137.006 31.8965 122.175 60.2569 125.788C62.9419 129.591 60.0894 131.112 58.0754 132.253C35.0849 145.182 21.828 197.09 41.7974 195.949C51.3628 195.569 65.6272 184.731 73.0107 166.287C81.5693 144.802 70.9971 117.802 63.4453 92.3233C45.825 32.2399 85.7649 -19.6676 131.41 7.33157C148.695 17.5992 137.284 53.5353 114.125 50.4932H114.125Z" fill="#5790DF"/>
</g>
<defs>
<clipPath id="clip0_146_308">
<rect width="140" height="216" fill="white"/>
</clipPath>
</defs>
</svg>
