<svg width="23" height="23" viewBox="0 0 23 23" fill="none" xmlns="http://www.w3.org/2000/svg">
<g clip-path="url(#clip0_146_250)">
<path d="M22.9486 0.986029C23.0009 0.855412 23.0137 0.712323 22.9854 0.574501C22.9571 0.436679 22.889 0.310185 22.7895 0.2107C22.6901 0.111216 22.5636 0.0431166 22.4257 0.0148447C22.2879 -0.0134273 22.1448 -0.000628498 22.0142 0.0516543L1.10291 8.41647H1.10147L0.45172 8.67522C0.328656 8.72431 0.221556 8.80646 0.142249 8.91259C0.0629424 9.01873 0.0145162 9.14472 0.00231971 9.27665C-0.00987682 9.40858 0.014631 9.54132 0.073136 9.66019C0.131641 9.77907 0.221866 9.87946 0.333845 9.95028L0.92322 10.324L0.924658 10.3269L8.10497 14.8953L12.6733 22.0756L12.6762 22.0785L13.05 22.6678C13.121 22.7794 13.2215 22.8692 13.3403 22.9273C13.459 22.9854 13.5916 23.0097 13.7232 22.9973C13.8549 22.985 13.9806 22.9366 14.0866 22.8574C14.1925 22.7782 14.2745 22.6713 14.3236 22.5485L22.9486 0.986029ZM20.3137 3.7029L9.54103 14.4755L9.23197 13.9897C9.17534 13.9005 9.09976 13.8249 9.0106 13.7683L8.52472 13.4592L19.2973 2.68659L20.9907 2.00953L20.3151 3.7029H20.3137Z" fill="#5790DF"/>
</g>
<defs>
<clipPath id="clip0_146_250">
<rect width="23" height="23" fill="white"/>
</clipPath>
</defs>
</svg>
